# This file uses centimeters as units for non-parametric coordinates.

mtllib cassette.mtl
g default
v 0.001369 -0.050571 0.361046
v 0.413229 -0.050571 0.361046
v 0.001369 0.040450 0.361046
v 0.413229 0.040450 0.361046
v 0.001369 0.040450 -0.360227
v 0.413229 0.040450 -0.360227
v 0.001369 -0.050571 -0.360227
v 0.413229 -0.050571 -0.360227
vt 0.375000 0.000000
vt 0.625000 0.000000
vt 0.827526 0.003690
vt 0.036030 0.003690
vt 0.827526 0.996456
vt 0.036030 0.996456
vt 0.625000 0.750000
vt 0.375000 0.750000
vt 0.625000 1.000000
vt 0.375000 1.000000
vt 0.875000 0.000000
vt 0.875000 0.250000
vt 0.125000 0.000000
vt 0.125000 0.250000
vn 0.000000 0.000000 1.000000
vn 0.000000 0.000000 1.000000
vn 0.000000 0.000000 1.000000
vn 0.000000 0.000000 1.000000
vn 0.000000 1.000000 0.000000
vn 0.000000 1.000000 0.000000
vn 0.000000 1.000000 0.000000
vn 0.000000 1.000000 0.000000
vn 0.000000 0.000000 -1.000000
vn 0.000000 0.000000 -1.000000
vn 0.000000 0.000000 -1.000000
vn 0.000000 0.000000 -1.000000
vn 0.000000 -1.000000 0.000000
vn 0.000000 -1.000000 0.000000
vn 0.000000 -1.000000 0.000000
vn 0.000000 -1.000000 0.000000
vn 1.000000 0.000000 0.000000
vn 1.000000 0.000000 0.000000
vn 1.000000 0.000000 0.000000
vn 1.000000 0.000000 0.000000
vn -1.000000 0.000000 0.000000
vn -1.000000 0.000000 0.000000
vn -1.000000 0.000000 0.000000
vn -1.000000 0.000000 0.000000
s off
g polySurface552polySurface242
usemtl cassette_cassette_lambert3SG
f 1/1/1 2/2/2 4/3/3 3/4/4
usemtl cassette_cassette_lambert21SG
f 3/4/5 4/3/6 6/5/7 5/6/8
usemtl cassette_cassette_lambert3SG
f 5/6/9 6/5/10 8/7/11 7/8/12
f 7/8/13 8/7/14 2/9/15 1/10/16
f 2/2/17 8/11/18 6/12/19 4/3/20
f 7/13/21 1/1/22 3/4/23 5/14/24
